<?xml version="1.0" standalone="no"?>
<!DOCTYPE svg PUBLIC "-//W3C//DTD SVG 20010904//EN"
 "http://www.w3.org/TR/2001/REC-SVG-20010904/DTD/svg10.dtd">
<svg version="1.0" xmlns="http://www.w3.org/2000/svg"
 width="514.000000pt" height="479.000000pt" viewBox="0 0 514.000000 479.000000"
 preserveAspectRatio="xMidYMid meet">

<g transform="translate(0.000000,479.000000) scale(0.100000,-0.100000)"
fill="#000000" stroke="none">
<path d="M2595 3983 c-102 -5 -220 -27 -332 -62 -63 -19 -152 -74 -203 -124
-67 -68 -101 -138 -108 -224 -5 -66 -6 -69 -56 -118 -70 -68 -91 -113 -91
-200 0 -55 6 -82 27 -128 22 -46 26 -67 22 -100 -3 -23 -1 -62 6 -86 10 -39
10 -45 -5 -54 -25 -13 -55 -86 -55 -132 0 -88 56 -155 140 -169 33 -5 46 -15
79 -59 43 -59 120 -131 164 -153 15 -8 27 -16 27 -19 0 -2 -19 -17 -43 -33
-53 -37 -115 -99 -151 -151 -22 -31 -25 -43 -17 -59 8 -15 5 -30 -11 -63 -46
-94 -33 -211 30 -272 20 -20 57 -45 82 -57 25 -11 66 -36 92 -54 26 -19 78
-45 115 -58 62 -21 84 -23 253 -22 173 0 190 2 258 26 78 28 150 80 179 129
25 43 56 47 103 14 54 -37 109 -43 153 -16 42 26 76 108 68 165 -7 49 -63 96
-114 96 -14 0 -31 9 -40 23 -26 38 -50 62 -100 96 -37 25 -46 37 -42 52 11 32
-4 56 -60 98 -30 23 -55 46 -55 50 0 5 18 16 40 25 53 21 121 85 146 135 13
28 27 42 46 46 69 16 138 126 124 199 -7 33 -62 96 -84 96 -10 0 -12 7 -8 23
6 23 21 104 31 168 5 33 9 37 60 53 92 29 144 115 132 218 -9 72 -34 116 -107
189 -64 63 -67 69 -78 132 -6 37 -21 91 -35 120 -62 135 -227 233 -425 252
-32 3 -68 7 -82 8 -14 2 -47 1 -75 0z m-173 -712 c75 -26 133 -60 202 -121 32
-28 61 -50 66 -50 20 0 40 47 40 92 0 39 3 48 18 48 38 -1 156 -51 200 -85 61
-47 85 -44 93 12 3 24 8 45 11 48 7 7 85 -51 96 -72 31 -61 20 -182 -30 -328
-25 -74 -31 -107 -32 -185 -2 -142 -39 -200 -166 -259 -90 -41 -198 -61 -332
-61 -142 0 -231 19 -333 69 -97 49 -163 104 -215 181 -36 53 -43 58 -87 65
-34 5 -57 16 -80 38 -30 28 -33 36 -33 90 0 51 4 62 29 88 34 34 74 38 127 13
19 -9 37 -14 40 -11 3 3 1 37 -6 75 -12 63 -11 72 8 115 14 31 33 54 62 72 28
18 40 31 36 42 -16 40 -17 66 -6 93 7 17 13 30 14 30 0 0 19 7 41 15 51 20
158 13 237 -14z m779 -510 c53 -53 31 -148 -42 -184 l-34 -16 -3 45 c-4 54 12
78 45 69 13 -3 23 -1 23 4 0 17 -29 33 -50 26 -25 -8 -27 13 -5 55 19 37 29
37 66 1z m-644 -481 c37 0 44 -3 41 -17 -4 -24 -58 -29 -98 -8 -30 15 -33 42
-3 31 8 -3 35 -6 60 -6z m160 -133 c3 -4 -10 -7 -30 -7 -20 0 -37 4 -37 8 0
10 57 9 67 -1z m-87 -22 c-7 -8 -16 -12 -21 -9 -5 2 -20 -3 -34 -12 -21 -14
-24 -14 -20 -1 6 14 75 48 84 41 2 -2 -2 -10 -9 -19z m62 -24 c-24 -9 -44 -21
-44 -27 0 -5 -2 -11 -4 -13 -2 -2 -4 1 -4 7 0 7 -7 12 -15 12 -8 0 -15 5 -15
11 0 6 7 9 15 5 9 -3 15 0 15 8 0 8 16 13 48 14 l47 1 -43 -18z m346 -5 c52
-33 92 -75 92 -97 0 -11 -4 -19 -10 -19 -5 0 -10 -4 -10 -9 0 -5 27 -8 61 -8
57 2 63 0 91 -32 27 -31 30 -39 26 -87 -3 -33 -12 -62 -23 -74 -20 -22 -73
-35 -104 -25 -26 8 -28 25 -3 25 32 0 62 29 62 60 0 46 -30 60 -132 60 l-87 0
-3 62 c-3 55 -6 64 -27 75 -42 21 -47 42 -15 69 36 29 36 29 82 0z m-535 -23
c4 -20 4 -39 2 -41 -3 -3 -24 -1 -47 4 l-43 10 32 32 c17 18 36 32 41 32 5 0
12 -17 15 -37z m97 -3 c0 -5 -4 -10 -10 -10 -5 0 -10 5 -10 10 0 6 5 10 10 10
6 0 10 -4 10 -10z m184 -41 c-7 -12 -74 -11 -74 0 0 6 10 17 22 25 20 14 24
14 40 -1 10 -8 15 -20 12 -24z m-682 3 c29 -16 63 -31 76 -34 37 -10 28 -38
-12 -38 -19 0 -38 -4 -41 -10 -4 -6 6 -10 22 -10 30 0 73 -24 73 -41 0 -5 -15
-9 -33 -9 -40 0 -77 -24 -77 -51 0 -27 18 -59 33 -59 7 0 19 -5 27 -10 13 -9
13 -11 0 -20 -44 -29 -121 8 -150 73 -25 53 -26 155 -4 203 9 19 20 34 24 34
4 0 32 -13 62 -28z m763 18 c3 -5 -1 -10 -10 -10 -9 0 -13 5 -10 10 3 6 8 10
10 10 2 0 7 -4 10 -10z m-260 -65 c77 -4 187 -2 245 3 58 5 109 6 113 2 29
-25 -111 -50 -291 -51 -89 -1 -110 -3 -87 -10 27 -8 271 -13 350 -6 21 1 30
-2 30 -13 0 -13 -41 -15 -302 -18 l-303 -2 0 56 0 56 53 -6 c28 -3 115 -8 192
-11z m570 -139 c11 -8 16 -19 12 -30 -6 -15 -52 -16 -515 -16 -441 0 -511 2
-522 15 -10 12 -10 18 0 30 11 13 80 15 509 15 403 0 501 -3 516 -14z"/>
<path d="M2276 3069 c-42 -50 -32 -68 21 -36 30 17 41 19 74 10 46 -12 52 1
16 35 -35 33 -79 29 -111 -9z"/>
<path d="M2870 3033 c-17 -6 -49 -43 -50 -56 0 -5 18 -6 40 -2 27 5 49 2 71
-9 18 -9 36 -16 41 -16 17 0 7 29 -21 59 -28 30 -48 36 -81 24z"/>
<path d="M2285 2925 c-50 -49 -22 -175 39 -175 69 0 94 132 34 183 -27 23 -44
22 -73 -8z m85 -45 c4 -26 0 -40 -10 -40 -13 0 -24 46 -15 60 8 13 22 2 25
-20z"/>
<path d="M2820 2892 c-16 -13 -24 -32 -28 -70 -4 -47 -2 -54 26 -82 25 -24 35
-28 54 -22 33 12 62 74 53 118 -12 66 -61 92 -105 56z m85 -52 c0 -13 -5 -25
-12 -27 -13 -5 -27 32 -18 47 11 18 30 5 30 -20z"/>
<path d="M1895 2771 c-3 -6 7 -16 22 -23 17 -8 32 -25 38 -45 5 -18 12 -33 16
-33 17 0 19 21 5 54 -18 44 -65 71 -81 47z"/>
<path d="M2583 2738 c-36 -17 -27 -27 25 -25 26 1 55 -2 65 -7 11 -5 17 -4 17
4 0 34 -62 50 -107 28z"/>
<path d="M2415 2640 c-10 -11 -28 -20 -41 -20 -32 0 -40 -18 -12 -29 14 -5 29
-24 37 -47 67 -189 256 -207 369 -36 27 41 40 52 55 48 22 -5 47 2 47 15 0 5
-10 9 -22 9 -12 0 -35 12 -51 28 -27 25 -29 26 -39 9 -25 -45 -149 -62 -230
-31 -24 9 -55 29 -69 45 -26 29 -26 29 -44 9z m231 -161 c23 -19 16 -37 -22
-49 -64 -21 -144 9 -114 44 21 27 106 30 136 5z"/>
<path d="M1720 1260 l0 -152 81 4 c70 3 83 6 100 27 28 34 25 85 -6 109 -24
19 -24 21 -10 48 20 39 19 48 -7 79 -19 21 -35 27 -90 32 l-68 6 0 -153z m104
84 c19 -19 20 -26 4 -42 -23 -23 -48 -14 -48 16 0 44 17 54 44 26z m25 -132
c14 -27 -5 -52 -39 -52 -28 0 -30 3 -30 35 0 32 2 35 30 35 18 0 33 -7 39 -18z"/>
<path d="M1980 1272 c-78 -78 5 -203 101 -152 13 7 19 7 19 0 0 -5 14 -10 30
-10 l30 0 0 90 0 91 -42 -1 c-24 -1 -57 2 -75 6 -27 5 -37 1 -63 -24z m104
-38 c30 -30 13 -74 -29 -74 -60 0 -59 88 2 90 6 0 19 -7 27 -16z"/>
<path d="M2292 1284 c-12 -8 -22 -10 -22 -5 0 6 -13 11 -30 11 l-30 0 0 -90 0
-90 30 0 c30 0 30 0 30 60 0 48 4 61 19 70 11 5 26 7 35 4 16 -6 41 30 31 46
-9 15 -38 12 -63 -6z"/>
<path d="M2476 1292 c-3 -6 -24 -8 -46 -5 l-40 6 0 -92 0 -91 30 0 c29 0 29 1
32 61 3 65 19 88 52 76 12 -5 16 -20 16 -72 l0 -65 30 0 30 0 0 79 c0 55 -4
82 -14 90 -20 16 -82 25 -90 13z"/>
<path d="M2674 1284 c-59 -29 -71 -98 -25 -145 25 -24 37 -29 80 -29 38 0 56
5 71 20 49 49 45 111 -10 148 -38 26 -73 28 -116 6z m85 -48 c7 -8 11 -27 9
-43 -2 -22 -9 -29 -31 -31 -50 -6 -75 38 -41 72 19 20 48 20 63 2z"/>
<path d="M3141 1286 c-56 -31 -67 -102 -22 -147 24 -23 38 -29 74 -29 44 0
100 30 85 45 -9 9 -47 9 -73 1 -24 -8 -61 16 -51 32 4 7 32 12 65 12 32 0 60
3 64 6 12 12 -17 65 -44 79 -34 18 -66 19 -98 1z m79 -41 c11 -13 7 -15 -30
-15 -37 0 -41 2 -30 15 7 8 20 15 30 15 10 0 23 -7 30 -15z"/>
<path d="M2890 1214 l42 -75 -32 -60 -31 -59 35 0 c34 0 35 2 95 117 80 153
80 153 41 153 -27 0 -33 -5 -51 -47 l-20 -48 -25 40 c-13 22 -24 43 -24 48 0
4 -16 7 -36 7 l-35 0 41 -76z"/>
<path d="M3302 1282 c2 -4 23 -45 48 -90 57 -106 69 -106 127 3 23 44 43 83
43 88 0 4 -15 7 -32 7 -30 0 -35 -5 -54 -48 l-21 -47 -23 48 c-22 42 -27 47
-58 47 -18 0 -32 -3 -30 -8z"/>
<path d="M1810 850 l0 -70 -27 11 c-40 15 -82 2 -104 -34 -29 -49 -21 -102 20
-134 20 -15 87 -17 97 -2 4 8 9 8 17 0 6 -6 21 -11 34 -11 l23 0 0 155 0 155
-30 0 -30 0 0 -70z m-11 -114 c7 -8 11 -27 9 -43 -2 -23 -8 -29 -36 -31 -27
-3 -34 1 -42 24 -8 21 -7 31 6 45 20 23 47 24 63 5z"/>
<path d="M2594 907 c-2 -7 -3 -76 -2 -152 l3 -140 28 -3 27 -3 0 155 0 156
-25 0 c-14 0 -28 -6 -31 -13z"/>
<path d="M1943 765 c-32 -32 -35 -40 -30 -73 9 -52 46 -82 101 -82 53 0 102
32 76 50 -8 6 -23 8 -32 5 -10 -3 -26 -8 -37 -11 -20 -6 -55 22 -46 37 4 5 35
9 71 9 35 0 64 2 64 5 0 25 -34 77 -55 85 -47 18 -75 12 -112 -25z m97 -20
c11 -13 7 -15 -30 -15 -37 0 -41 2 -30 15 7 8 20 15 30 15 10 0 23 -7 30 -15z"/>
<path d="M2394 766 c-44 -44 -46 -86 -5 -127 24 -23 38 -29 74 -29 54 0 103
32 77 50 -8 6 -23 8 -32 5 -10 -3 -26 -8 -37 -11 -20 -6 -55 22 -46 37 4 5 35
9 71 9 35 0 64 4 64 10 0 24 -26 63 -51 76 -45 23 -78 17 -115 -20z m96 -21
c11 -13 7 -15 -24 -15 -34 0 -44 8 -29 23 11 12 40 8 53 -8z"/>
<path d="M2750 789 c-31 -11 -60 -57 -60 -94 0 -42 50 -85 99 -85 55 0 87 17
106 56 38 81 -52 157 -145 123z m74 -52 c12 -9 17 -23 14 -42 -2 -24 -8 -31
-31 -33 -50 -6 -75 38 -41 72 19 19 35 20 58 3z"/>
<path d="M3031 791 c-7 -5 -31 -6 -52 -4 l-39 6 0 -137 0 -136 30 0 c29 0 30
1 30 50 l0 49 49 -6 c45 -5 52 -3 75 22 39 42 37 104 -5 139 -31 26 -63 33
-88 17z m40 -51 c37 -20 18 -80 -26 -80 -42 0 -59 44 -29 74 18 19 28 20 55 6z"/>
<path d="M3231 786 c-88 -49 -52 -176 51 -176 26 0 52 8 67 19 l24 19 -21 11
c-16 8 -28 9 -41 1 -27 -14 -37 -13 -55 6 -25 25 -10 34 55 34 51 0 59 2 59
19 0 33 -11 51 -41 66 -34 18 -66 19 -98 1z m79 -41 c11 -13 7 -15 -30 -15
-37 0 -41 2 -30 15 7 8 20 15 30 15 10 0 23 -7 30 -15z"/>
<path d="M3492 784 c-12 -8 -22 -10 -22 -5 0 6 -13 11 -30 11 l-30 0 0 -90 0
-90 30 0 c30 0 30 1 30 54 0 62 19 91 55 82 28 -7 55 38 29 48 -24 9 -38 7
-62 -10z"/>
<path d="M2167 700 c63 -119 73 -119 135 0 l46 90 -34 0 c-32 0 -37 -4 -55
-45 -11 -25 -24 -43 -28 -41 -4 3 -16 23 -26 46 -16 35 -22 40 -52 40 l-34 0
48 -90z"/>
</g>
</svg>
